<svg width="42" height="42" viewBox="0 0 42 42" fill="none" xmlns="http://www.w3.org/2000/svg">
<path d="M32.761 15.1704C32.7611 13.609 32.4505 12.063 31.8469 10.6229C31.2433 9.18283 30.3591 7.87742 29.2456 6.78272C28.1321 5.68803 26.8118 4.82604 25.3616 4.24704C23.9116 3.66803 22.3606 3.38366 20.7994 3.41042C17.8022 3.49954 14.9486 4.71413 12.8066 6.81245C10.6647 8.91079 9.39166 11.7389 9.24095 14.7336C9.16931 16.7319 9.6084 18.7155 10.5167 20.497C11.4251 22.2783 12.7727 23.7987 14.4321 24.9144C14.8998 25.2185 15.2844 25.6341 15.5513 26.1238C15.8182 26.6137 15.959 27.1622 15.961 27.72V30.2904H26.041V27.72C26.041 27.1637 26.1792 26.6162 26.4432 26.1265C26.7071 25.6368 27.0884 25.2203 27.553 24.9144C29.1527 23.841 30.4644 22.391 31.3724 20.692C32.2807 18.9931 32.7574 17.0968 32.761 15.1704Z" stroke="black" stroke-width="2.5" stroke-linecap="round" stroke-linejoin="round"/>
<path d="M26.04 35.3472C24.5859 36.4377 22.8176 37.0272 21 37.0272C19.1824 37.0272 17.414 36.4377 15.96 35.3472" stroke="black" stroke-width="2.5" stroke-linecap="round" stroke-linejoin="round"/>
</svg>
