<svg width="50" height="50" viewBox="0 0 50 50" fill="none" xmlns="http://www.w3.org/2000/svg">
<path d="M30.5 15.25C30.6381 15.25 30.75 15.3619 30.75 15.5V33.5C30.75 33.6381 30.6381 33.75 30.5 33.75C30.3619 33.75 30.25 33.6381 30.25 33.5V15.5C30.25 15.3619 30.3619 15.25 30.5 15.25Z" stroke="black" stroke-width="2.5"/>
<path d="M24.5 15.25C24.6381 15.25 24.75 15.3619 24.75 15.5V33.5C24.75 33.6381 24.6381 33.75 24.5 33.75C24.3619 33.75 24.25 33.6381 24.25 33.5V15.5C24.25 15.3619 24.3619 15.25 24.5 15.25Z" stroke="black" stroke-width="2.5"/>
<path d="M18.5 15.25C18.6381 15.25 18.75 15.3619 18.75 15.5V33.5C18.75 33.6381 18.6381 33.75 18.5 33.75C18.3619 33.75 18.25 33.6381 18.25 33.5V15.5C18.25 15.3619 18.3619 15.25 18.5 15.25Z" stroke="black" stroke-width="2.5"/>
<rect x="8.75" y="11.25" width="1.5" height="31.5" rx="0.75" transform="rotate(-90 8.75 11.25)" stroke="black" stroke-width="1.5"/>
<path d="M36.75 10.25V36C36.75 38.0711 35.0711 39.75 33 39.75H16C13.9289 39.75 12.25 38.0711 12.25 36V10.25H36.75Z" stroke="black" stroke-width="2.5"/>
<path d="M19.25 9.75V8C19.25 5.92893 20.9289 4.25 23 4.25H26C28.0711 4.25 29.75 5.92893 29.75 8V9.75L19.25 9.75Z" stroke="black" stroke-width="2.5"/>
</svg>
