<svg width="126" height="111" viewBox="0 0 126 111" fill="none" xmlns="http://www.w3.org/2000/svg">
<path d="M13.5631 92.2891C13.5631 90.0859 13.9772 88.1016 14.8053 86.3359C15.6334 84.5547 16.774 83.0391 18.2272 81.7891C19.6959 80.5234 21.4303 79.5547 23.4303 78.8828C25.4459 78.1953 27.6256 77.8516 29.9694 77.8516C30.9694 77.8516 31.9537 77.9141 32.9225 78.0391C33.9069 78.1641 34.8444 78.3359 35.735 78.5547C36.6412 78.7734 37.485 79.0391 38.2662 79.3516C39.0631 79.6484 39.7662 79.9766 40.3756 80.3359V67.1172H47.3131V106H40.3756V103.398C39.7662 103.82 39.0475 104.219 38.2194 104.594C37.3912 104.969 36.5006 105.297 35.5475 105.578C34.5944 105.859 33.6022 106.078 32.5709 106.234C31.5553 106.406 30.5475 106.492 29.5475 106.492C27.2037 106.492 25.0475 106.148 23.0787 105.461C21.1256 104.773 19.4459 103.805 18.0397 102.555C16.6334 101.305 15.5319 99.8125 14.735 98.0781C13.9537 96.3281 13.5631 94.3984 13.5631 92.2891ZM20.8522 92.2891C20.8522 93.3984 21.0709 94.4453 21.5084 95.4297C21.9615 96.4141 22.6022 97.2812 23.4303 98.0312C24.274 98.7656 25.2819 99.3516 26.4537 99.7891C27.6412 100.211 28.9694 100.422 30.4381 100.422C31.3756 100.422 32.3131 100.336 33.2506 100.164C34.1881 99.9766 35.0865 99.7188 35.9459 99.3906C36.8209 99.0625 37.6334 98.6641 38.3834 98.1953C39.149 97.7266 39.8131 97.2031 40.3756 96.625V87.0391C39.6725 86.4766 38.9303 86 38.149 85.6094C37.3678 85.2188 36.5709 84.8984 35.7584 84.6484C34.9459 84.3984 34.1256 84.2188 33.2975 84.1094C32.4694 83.9844 31.6647 83.9219 30.8834 83.9219C29.2897 83.9219 27.8678 84.1406 26.6178 84.5781C25.3834 85 24.3365 85.5859 23.4772 86.3359C22.6334 87.0859 21.985 87.9688 21.5319 88.9844C21.0787 90 20.8522 91.1016 20.8522 92.2891ZM52.1084 92.0781C52.1084 90.2031 52.4912 88.4141 53.2569 86.7109C54.0225 84.9922 55.124 83.4766 56.5615 82.1641C57.999 80.8516 59.7569 79.8047 61.835 79.0234C63.9287 78.2422 66.3037 77.8516 68.96 77.8516C71.6006 77.8516 73.9756 78.25 76.085 79.0469C78.21 79.8281 80.0069 80.9062 81.4756 82.2812C82.96 83.6562 84.0928 85.2734 84.874 87.1328C85.6709 88.9922 86.0694 90.9844 86.0694 93.1094C86.0694 93.375 86.0615 93.6641 86.0459 93.9766C86.0459 94.2734 86.0303 94.5469 85.999 94.7969H59.8428C60.1397 95.625 60.6162 96.3828 61.2725 97.0703C61.9444 97.7578 62.7803 98.3516 63.7803 98.8516C64.7803 99.3516 65.9365 99.7422 67.249 100.023C68.5615 100.289 70.0147 100.422 71.6084 100.422C73.2022 100.422 74.7881 100.258 76.3662 99.9297C77.9444 99.5859 79.4522 99.1562 80.8897 98.6406L83.2334 103.938C82.3272 104.359 81.4053 104.734 80.4678 105.062C79.5459 105.375 78.5772 105.641 77.5615 105.859C76.5615 106.062 75.5069 106.219 74.3975 106.328C73.3037 106.438 72.1475 106.492 70.9287 106.492C67.8194 106.492 65.0928 106.117 62.749 105.367C60.4053 104.617 58.4444 103.594 56.8662 102.297C55.2881 101 54.1006 99.4766 53.3037 97.7266C52.5069 95.9766 52.1084 94.0938 52.1084 92.0781ZM78.71 89.3828C78.46 88.6172 78.0694 87.9062 77.5381 87.25C77.0225 86.5781 76.374 86 75.5928 85.5156C74.8115 85.0156 73.9053 84.625 72.874 84.3438C71.8428 84.0625 70.71 83.9219 69.4756 83.9219C68.1631 83.9219 66.9678 84.0703 65.8897 84.3672C64.8115 84.6641 63.8662 85.0625 63.0537 85.5625C62.2412 86.0625 61.5615 86.6406 61.0147 87.2969C60.4834 87.9531 60.0928 88.6484 59.8428 89.3828H78.71ZM87.3256 78.3203H95.3647L102.56 94.9609L104.435 99.625L106.31 94.9609L113.505 78.3203H121.544L108.443 106H100.427L87.3256 78.3203Z" fill="#376FD0"/>
<rect x="108.6" y="7" width="7" height="29" fill="#376FD0"/>
<rect x="77" width="7" height="36" fill="#376FD0"/>
<rect x="97" y="7" width="7" height="29" transform="rotate(-90 97 7)" fill="#376FD0"/>
<path d="M5.4375 65.5156C7.3125 66.6406 9.375 67.4688 11.625 68C13.875 68.5312 16.1797 68.7969 18.5391 68.7969C20.1328 68.7969 21.4609 68.6875 22.5234 68.4688C23.5859 68.25 24.4375 67.9688 25.0781 67.625C25.7188 67.2812 26.1719 66.8906 26.4375 66.4531C26.7031 66.0156 26.8359 65.5703 26.8359 65.1172C26.8359 64.4609 26.5469 63.8984 25.9688 63.4297C25.4062 62.9609 24.4688 62.7266 23.1562 62.7266C22.5469 62.7266 21.8906 62.7656 21.1875 62.8438C20.4844 62.9219 19.7422 63.0078 18.9609 63.1016C18.1953 63.1797 17.3906 63.2578 16.5469 63.3359C15.7188 63.4141 14.875 63.4531 14.0156 63.4531C12.1406 63.4531 10.5391 63.25 9.21094 62.8438C7.89844 62.4375 6.82812 61.8828 6 61.1797C5.17188 60.4766 4.57031 59.6484 4.19531 58.6953C3.82031 57.7266 3.63281 56.6875 3.63281 55.5781C3.63281 54.1719 3.96094 52.875 4.61719 51.6875C5.27344 50.5 6.21094 49.4766 7.42969 48.6172C8.64844 47.7422 10.1172 47.0625 11.8359 46.5781C13.5703 46.0938 15.5 45.8516 17.625 45.8516C18.7344 45.8516 19.8906 45.9219 21.0938 46.0625C22.3125 46.1875 23.5078 46.3594 24.6797 46.5781C25.8516 46.7969 26.9766 47.0547 28.0547 47.3516C29.1328 47.6328 30.0859 47.9375 30.9141 48.2656L28.7344 53.6562C26.9688 53 25.2031 52.4844 23.4375 52.1094C21.6875 51.7188 19.8828 51.5234 18.0234 51.5234C16.7266 51.5234 15.625 51.625 14.7188 51.8281C13.8281 52.0156 13.1016 52.2734 12.5391 52.6016C11.9766 52.9141 11.5625 53.2812 11.2969 53.7031C11.0469 54.1094 10.9219 54.5391 10.9219 54.9922C10.9219 55.3203 10.9844 55.6172 11.1094 55.8828C11.25 56.1484 11.4688 56.3828 11.7656 56.5859C12.0781 56.7734 12.4766 56.9219 12.9609 57.0312C13.4609 57.125 14.0703 57.1719 14.7891 57.1719C15.4453 57.1719 16.1406 57.1328 16.875 57.0547C17.6094 56.9766 18.375 56.8984 19.1719 56.8203C19.9688 56.7266 20.7891 56.6406 21.6328 56.5625C22.4922 56.4844 23.3672 56.4453 24.2578 56.4453C25.9141 56.4453 27.3594 56.6406 28.5938 57.0312C29.8438 57.4219 30.875 57.9688 31.6875 58.6719C32.5 59.375 33.1094 60.2031 33.5156 61.1562C33.9219 62.1094 34.125 63.1484 34.125 64.2734C34.125 65.7266 33.7891 67.0781 33.1172 68.3281C32.4453 69.5781 31.4453 70.6641 30.1172 71.5859C28.7891 72.4922 27.1328 73.2031 25.1484 73.7188C23.1797 74.2344 20.8984 74.4922 18.3047 74.4922C16.7109 74.4922 15.1719 74.3906 13.6875 74.1875C12.2031 74 10.7891 73.7422 9.44531 73.4141C8.10156 73.0703 6.83594 72.6719 5.64844 72.2188C4.47656 71.7656 3.40625 71.2812 2.4375 70.7656L5.4375 65.5156ZM40.4062 35.1172H47.3438V58.0859L60.2812 46.3438H70.8984L56.4375 59.2812L71.8125 74H61.4062L51.1172 64.0391L47.3438 67.4141V74H40.4062V35.1172ZM92.6016 35.1172H99.5391V74H92.6016V35.1172ZM108.633 35.1172H115.57V74H108.633V35.1172Z" fill="black"/>
<rect x="77" y="45" width="7" height="29" fill="black"/>
<rect x="77" y="35" width="7" height="8" fill="black"/>
<path d="M38.8313 5L36 5L43.8038 16.1043L36 28H38.8313L48 16.1043L38.8313 5Z" stroke="#376FD0" stroke-opacity="0.6" stroke-width="9"/>
<path d="M18.8313 5L16 5L23.8038 16.1043L16 28H18.8313L28 16.1043L18.8313 5Z" stroke="#376FD0" stroke-opacity="0.3" stroke-width="9"/>
<path d="M57.8313 5L55 5L62.8038 16.1043L55 28H57.8313L67 16.1043L57.8313 5Z" stroke="#376FD0" stroke-width="9"/>
</svg>
