<svg width="40" height="40" viewBox="0 0 40 40" fill="none" xmlns="http://www.w3.org/2000/svg">
<path fill-rule="evenodd" clip-rule="evenodd" d="M6.27095 9.48994V20.3912C6.27095 28.5307 13.7946 32.4438 19.8376 35.5886L19.9989 35.6713L20.1624 35.5886C26.2054 32.4438 33.729 28.5307 33.729 20.3912V9.48994L19.9989 3.29171L6.27095 9.48994ZM19.9989 38C19.8126 38 19.6264 37.9543 19.4561 37.8672L18.7544 37.5016C12.5274 34.261 4 29.8257 4 20.3912V8.8C4 8.3778 4.25436 7.99476 4.65176 7.81413L19.5174 1.10446C19.8217 0.96518 20.1783 0.96518 20.4826 1.10446L35.3482 7.81417C35.7457 7.9948 36 8.37784 36 8.80004V20.3912C36 29.8257 27.4703 34.2611 21.2456 37.5016L20.5439 37.8673C20.3736 37.9543 20.1874 38 19.9989 38ZM28.5 27C26.7972 28.7768 24.949 28.4661 23.0903 27.4469C22.2173 26.9682 21.5 26.5 21.2486 25.6841C21.0629 25.0814 21.6059 24.5889 21.2486 24.0692C20.7289 23.3136 20.1345 24.1621 19.5 23.5C18.892 22.8655 19.6042 22.3452 18.9004 21.8189C18.3741 21.4254 17.8258 22.0679 17.2176 21.8189C16.6288 21.5779 16.0413 20.6916 16.0413 20.6916C16.0027 20.6937 15.9641 20.6937 15.9255 20.6937C12.385 20.6937 9.50547 17.9341 9.50547 14.5412C9.50547 11.1483 12.385 8.38651 15.9255 8.38651C19.4659 8.38651 22.3454 11.1483 22.3454 14.5412C22.3454 14.5782 22.3454 14.6152 22.3432 14.65C22.3432 14.65 26.5 18.5174 29.3922 21.4076C29.8779 21.8929 30.7731 24.6281 28.5 27ZM23.5195 24.7831C23.7339 25.0637 25.5 26.9623 27.1213 25.2706C28.5 23.8319 27.1213 22.3086 27.1213 22.3086C27.1213 22.3086 23.5974 18.9715 20.5 16C20.0254 15.5447 20 14.65 20 14C20 12 18.2123 10.5629 15.9255 10.5629C13.6386 10.5629 11.7764 12.3496 11.7764 14.5412C11.7764 16.735 13.6386 18.5174 15.9255 18.5174C15.9255 18.5174 16.5057 18.362 16.8747 18.4151C17.7522 18.5414 17.6705 19.6871 18.5 20C18.9004 20.151 19.7573 19.2349 20.5 20C21.2427 20.7651 20.5633 21.2584 21.1714 21.8929C21.8058 22.555 22.2883 21.9218 23 22.5C23.7117 23.0782 23.0791 24.2068 23.5195 24.7831ZM17.7288 14.6035C17.7288 15.5045 16.9658 16.2357 16.0256 16.2357C15.0854 16.2357 14.3224 15.5045 14.3224 14.6035C14.3224 13.7024 15.0854 12.9712 16.0256 12.9712C16.9658 12.9712 17.7288 13.7024 17.7288 14.6035Z" fill="black"/>
</svg>
