<svg width="40" height="40" viewBox="0 0 40 40" fill="none" xmlns="http://www.w3.org/2000/svg">
<path d="M9.375 15.3125C9.375 21.1562 14.1562 25.9375 20 25.9375C25.8438 25.9375 30.625 21.1562 30.625 15.3125C30.625 9.46875 25.8438 4.6875 20 4.6875C14.1562 4.6875 9.375 9.46875 9.375 15.3125ZM28.125 15.3125C28.125 19.7812 24.4688 23.4375 20 23.4375C15.5312 23.4375 11.875 19.7812 11.875 15.3125C11.875 10.8438 15.5312 7.1875 20 7.1875C24.4688 7.1875 28.125 10.8438 28.125 15.3125Z" fill="black"/>
<path d="M7.625 37.3232C10.9375 34.0107 15.3125 32.1982 20 32.1982C24.6875 32.1982 29.0625 34.0107 32.375 37.3232L34.1563 35.5419C30.375 31.7919 25.3438 29.6982 20 29.6982C14.6563 29.6982 9.625 31.7919 5.84375 35.5419L7.625 37.3232Z" fill="black"/>
</svg>
