<svg width="50" height="50" viewBox="0 0 50 50" fill="none" xmlns="http://www.w3.org/2000/svg">
<path d="M23.75 32C23.75 32.6904 24.3096 33.25 25 33.25C25.6904 33.25 26.25 32.6904 26.25 32L25 32L23.75 32ZM25.8839 9.11612C25.3957 8.62796 24.6043 8.62796 24.1161 9.11612L16.1612 17.0711C15.673 17.5592 15.673 18.3507 16.1612 18.8388C16.6493 19.327 17.4408 19.327 17.9289 18.8388L25 11.7678L32.0711 18.8388C32.5592 19.327 33.3507 19.327 33.8388 18.8388C34.327 18.3507 34.327 17.5592 33.8388 17.0711L25.8839 9.11612ZM25 32L26.25 32L26.25 10L25 10L23.75 10L23.75 32L25 32Z" fill="black"/>
<path d="M8.5 27.5V38C8.5 40.7614 10.7386 43 13.5 43H36C38.7614 43 41 40.7614 41 38V27.5" stroke="black" stroke-width="2.5" stroke-linecap="round"/>
</svg>
