<svg width="40" height="40" viewBox="0 0 40 40" fill="none" xmlns="http://www.w3.org/2000/svg">
<path d="M31 14.8135C31.0002 13.2452 30.6965 11.6924 30.1064 10.246C29.5163 8.79955 28.652 7.4884 27.5634 6.38887C26.4749 5.28937 25.1842 4.42358 23.7665 3.84204C22.349 3.26048 20.8328 2.97486 19.3066 3.00174C16.3767 3.09125 13.587 4.31119 11.4931 6.41874C9.39922 8.52631 8.15471 11.3669 8.00738 14.3748C7.93735 16.3819 8.36659 18.3742 9.25457 20.1635C10.1425 21.9526 11.4599 23.4797 13.0822 24.6003C13.5394 24.9058 13.9154 25.3232 14.1763 25.8151C14.4372 26.3071 14.5748 26.8581 14.5767 27.4183V30H24.4307V27.4183C24.4307 26.8596 24.5658 26.3097 24.8239 25.8178C25.0819 25.3259 25.4547 24.9076 25.9088 24.6003C27.4726 23.5223 28.7549 22.0659 29.6426 20.3594C30.5305 18.653 30.9966 16.7484 31 14.8135Z" stroke="black" stroke-width="2.5" stroke-linecap="round" stroke-linejoin="round"/>
<path d="M25 34C23.4133 35.2982 21.4835 36 19.5 36C17.5165 36 15.5867 35.2982 14 34" stroke="black" stroke-width="2.5" stroke-linecap="round" stroke-linejoin="round"/>
</svg>
