<svg width="40" height="40" viewBox="0 0 40 40" fill="none" xmlns="http://www.w3.org/2000/svg">
<path d="M19.5008 35.9948C18.8475 35.9948 18.2324 35.7412 17.7697 35.2804L3.71358 21.2186C2.76249 20.2629 2.76249 18.7072 3.71151 17.7536L8.86059 12.6031C9.17796 12.2845 9.66639 12.2093 10.0662 12.4186C10.4639 12.6268 10.6824 13.0701 10.6041 13.5134C10.5515 13.8082 10.5278 14.0443 10.5278 14.2588C10.5278 16.5144 12.362 18.3876 14.6176 18.3876C16.8753 18.3876 18.523 16.5144 18.523 14.2588C18.523 12 16.8753 10.1649 14.6176 10.1649C14.4064 10.1649 14.1714 10.1897 13.8767 10.2412C13.4295 10.3237 12.9906 10.1021 12.7824 9.70412C12.5743 9.30412 12.6495 8.81546 12.9669 8.49794L17.7676 3.69381C18.6971 2.76804 20.3056 2.7701 21.2309 3.69175L24.7457 7.21031C25.4794 4.92887 27.6207 3.27216 30.1401 3.27216C33.2643 3.27216 35.8064 5.81649 35.8064 8.9433C35.8064 11.4649 34.1526 13.6062 31.8702 14.3392L35.285 17.7536C36.2382 18.7103 36.2382 20.265 35.286 21.2206L21.232 35.2825C20.7672 35.7464 20.1531 36 19.4998 36L19.5008 35.9948ZM8.64523 15.733L5.17061 19.2082C5.02119 19.3588 5.02119 19.6093 5.17267 19.7619L19.2237 33.8206C19.4205 34.0155 19.5761 34.0186 19.777 33.8186L33.828 19.7598C33.9784 19.6072 33.9784 19.3608 33.8269 19.2072L28.8716 14.2526C28.5614 13.9423 28.4811 13.4691 28.6717 13.0742C28.8623 12.6794 29.2786 12.4454 29.7186 12.5L29.8752 12.5206C29.9618 12.532 30.0483 12.5464 30.139 12.5464C32.1278 12.5464 33.7445 10.9289 33.7445 8.94124C33.7445 6.95052 32.1267 5.33196 30.139 5.33196C28.1513 5.33196 26.5346 6.95155 26.5346 8.94124C26.5346 9.02371 26.5469 9.10412 26.5583 9.18454L26.5799 9.36804C26.6263 9.80309 26.3944 10.2196 25.9998 10.4082C25.6082 10.5948 25.1363 10.5155 24.8282 10.2062L19.7749 5.14742C19.5771 4.95155 19.4225 4.94948 19.2216 5.14948L16.0942 8.27835C18.7764 8.94227 20.5828 11.3701 20.5828 14.2557C20.5828 17.6485 18.0088 20.4454 14.6166 20.4454C11.7334 20.4454 9.3078 18.4134 8.64523 15.733Z" fill="black" stroke="black" stroke-width="0.5"/>
</svg>
