<svg width="40" height="40" viewBox="0 0 40 40" fill="none" xmlns="http://www.w3.org/2000/svg">
<path fill-rule="evenodd" clip-rule="evenodd" d="M24.3333 4H11C9.94011 4.00317 8.92453 4.42561 8.17507 5.17507C7.42561 5.92453 7.00317 6.94011 7 8L7 26.6533C7.00317 27.7132 7.42561 28.7288 8.17507 29.4783C8.92453 30.2277 9.94011 30.6502 11 30.6533H24.3333C25.3932 30.6502 26.4088 30.2277 27.1583 29.4783C27.9077 28.7288 28.3302 27.7132 28.3333 26.6533V8C28.3302 6.94011 27.9077 5.92453 27.1583 5.17507C26.4088 4.42561 25.3932 4.00317 24.3333 4ZM25.6667 26.6533C25.6612 27.0052 25.5189 27.3412 25.2701 27.5901C25.0212 27.8389 24.6852 27.9812 24.3333 27.9867H11C10.6481 27.9812 10.3121 27.8389 10.0633 27.5901C9.81441 27.3412 9.67217 27.0052 9.66667 26.6533V8C9.67217 7.64809 9.81441 7.31214 10.0633 7.06327C10.3121 6.81441 10.6481 6.67217 11 6.66667H24.3333C25.0653 6.67867 25.6547 7.268 25.6667 8V26.6533Z" fill="black"/>
<path fill-rule="evenodd" clip-rule="evenodd" d="M33.6667 13.3333V32C33.6635 33.0599 33.2411 34.0755 32.4916 34.8249C31.7422 35.5744 30.7266 35.9968 29.6667 36H13.6667C13.3131 36 12.9739 35.8595 12.7239 35.6095C12.4739 35.3594 12.3334 35.0203 12.3334 34.6667C12.3334 34.313 12.4739 33.9739 12.7239 33.7239C12.9739 33.4738 13.3131 33.3333 13.6667 33.3333H29.6667C30.0186 33.3278 30.3546 33.1856 30.6034 32.9367C30.8523 32.6879 30.9945 32.3519 31 32V13.3333C31 12.9797 31.1405 12.6406 31.3906 12.3905C31.6406 12.1405 31.9798 12 32.3334 12C32.687 12 33.0261 12.1405 33.2762 12.3905C33.5262 12.6406 33.6667 12.9797 33.6667 13.3333Z" fill="black"/>
<path d="M17.6667 25.3334C18.4031 25.3334 19 24.7365 19 24.0001C19 23.2637 18.4031 22.6667 17.6667 22.6667C16.9303 22.6667 16.3334 23.2637 16.3334 24.0001C16.3334 24.7365 16.9303 25.3334 17.6667 25.3334Z" fill="black"/>
<path fill-rule="evenodd" clip-rule="evenodd" d="M23 14.6666C23.001 15.8487 22.6084 16.9976 21.8841 17.9319C21.1598 18.8662 20.1451 19.5328 19 19.8266V19.9999C19 20.3535 18.8596 20.6927 18.6095 20.9427C18.3595 21.1928 18.0203 21.3333 17.6667 21.3333C17.3131 21.3333 16.9739 21.1928 16.7239 20.9427C16.4739 20.6927 16.3334 20.3535 16.3334 19.9999V18.6666C16.3334 18.313 16.4739 17.9738 16.7239 17.7238C16.9739 17.4737 17.3131 17.3333 17.6667 17.3333C18.1941 17.3333 18.7097 17.1769 19.1482 16.8838C19.5868 16.5908 19.9286 16.1743 20.1304 15.6871C20.3322 15.1998 20.385 14.6636 20.2821 14.1463C20.1792 13.6291 19.9253 13.1539 19.5523 12.781C19.1794 12.408 18.7042 12.1541 18.1869 12.0512C17.6697 11.9483 17.1335 12.0011 16.6462 12.2029C16.1589 12.4047 15.7425 12.7465 15.4495 13.1851C15.1564 13.6236 15 14.1392 15 14.6666C15 15.0202 14.8596 15.3593 14.6095 15.6094C14.3595 15.8594 14.0203 15.9999 13.6667 15.9999C13.3131 15.9999 12.9739 15.8594 12.7239 15.6094C12.4739 15.3593 12.3334 15.0202 12.3334 14.6666C12.3334 13.2521 12.8953 11.8955 13.8955 10.8953C14.8957 9.89515 16.2522 9.33325 17.6667 9.33325C19.0812 9.33325 20.4378 9.89515 21.4379 10.8953C22.4381 11.8955 23 13.2521 23 14.6666Z" fill="black"/>
</svg>
