<svg width="50" height="50" viewBox="0 0 50 50" fill="none" xmlns="http://www.w3.org/2000/svg">
<path d="M26.25 10C26.25 9.30964 25.6904 8.75 25 8.75C24.3096 8.75 23.75 9.30964 23.75 10H25H26.25ZM24.1161 32.8839C24.6043 33.372 25.3957 33.372 25.8839 32.8839L33.8388 24.9289C34.327 24.4408 34.327 23.6493 33.8388 23.1612C33.3507 22.673 32.5592 22.673 32.0711 23.1612L25 30.2322L17.9289 23.1612C17.4408 22.673 16.6493 22.673 16.1612 23.1612C15.673 23.6493 15.673 24.4408 16.1612 24.9289L24.1161 32.8839ZM25 10H23.75L23.75 32H25H26.25L26.25 10H25Z" fill="black"/>
<path d="M8.5 27.5V38C8.5 40.7614 10.7386 43 13.5 43H36C38.7614 43 41 40.7614 41 38V27.5" stroke="black" stroke-width="2.5" stroke-linecap="round"/>
</svg>
