<svg width="36" height="36" viewBox="0 0 36 36" fill="none" xmlns="http://www.w3.org/2000/svg">
<g clip-path="url(#clip0_8_143)">
<path d="M14.625 29.25C11.5767 29.2486 8.60508 28.2943 6.12594 26.5206C3.6468 24.747 1.78414 22.2427 0.798571 19.3581C-0.186996 16.4735 -0.246163 13.353 0.629348 10.4332C1.50486 7.51332 3.27125 4.94021 5.68137 3.07384C8.09149 1.20746 11.0248 0.14121 14.0708 0.0242561C17.1169 -0.0926974 20.1233 0.7455 22.6694 2.42158C25.2155 4.09765 27.174 6.52775 28.2708 9.37187C29.3677 12.216 29.5479 15.3319 28.7865 18.2835C28.7067 18.5666 28.5193 18.8072 28.2643 18.9538C28.0093 19.1004 27.7071 19.1413 27.4223 19.0677C27.1375 18.9942 26.8929 18.812 26.7407 18.5603C26.5886 18.3086 26.5411 18.0073 26.6085 17.721C26.8704 16.7099 27.0019 15.6695 27 14.625C27 12.1774 26.2742 9.78487 24.9144 7.74981C23.5546 5.71475 21.6219 4.12862 19.3607 3.19198C17.0994 2.25535 14.6112 2.01028 12.2107 2.48777C9.81021 2.96527 7.60519 4.14387 5.87452 5.87455C4.14384 7.60522 2.96524 9.81024 2.48775 12.2107C2.01025 14.6113 2.25532 17.0995 3.19195 19.3607C4.12859 21.6219 5.71472 23.5546 7.74978 24.9144C9.78484 26.2742 12.1774 27 14.625 27C17.1504 27.0083 19.6164 26.2345 21.6843 24.7849C22.896 23.9531 23.9443 22.9055 24.777 21.6945C24.9457 21.4482 25.2053 21.279 25.4988 21.2241C25.7923 21.1693 26.0955 21.2333 26.3418 21.402C26.5881 21.5707 26.7573 21.8304 26.8122 22.1238C26.867 22.4173 26.8031 22.7206 26.6343 22.9669C25.6472 24.4016 24.4057 25.6434 22.9713 26.631C20.5261 28.3443 17.6107 29.2591 14.625 29.25Z" fill="black"/>
<path d="M32.4889 36C31.5582 35.9975 30.666 35.628 30.006 34.9717L21.5359 26.5016C21.331 26.2894 21.2176 26.0053 21.2201 25.7103C21.2227 25.4153 21.341 25.1332 21.5496 24.9246C21.7582 24.716 22.0403 24.5977 22.3353 24.5951C22.6303 24.5925 22.9145 24.7059 23.1266 24.9109L31.5968 33.381C31.8334 33.6176 32.1543 33.7505 32.4889 33.7505C32.8235 33.7505 33.1444 33.6176 33.381 33.381C33.6176 33.1444 33.7505 32.8235 33.7505 32.4889C33.7505 32.1543 33.6176 31.8333 33.381 31.5967L24.9109 23.1266C24.706 22.9144 24.5926 22.6303 24.5951 22.3353C24.5977 22.0403 24.716 21.7582 24.9246 21.5496C25.1332 21.341 25.4153 21.2227 25.7103 21.2201C26.0053 21.2175 26.2895 21.3309 26.5016 21.5359L34.9718 30.006C35.4629 30.497 35.7973 31.1227 35.9328 31.8038C36.0683 32.4849 35.9988 33.1909 35.733 33.8325C35.4672 34.4742 35.0172 35.0225 34.4397 35.4083C33.8623 35.7941 33.1834 36 32.4889 36Z" fill="black"/>
<path d="M21.375 16.875H7.875C7.27826 16.875 6.70597 16.6379 6.28401 16.216C5.86205 15.794 5.625 15.2217 5.625 14.625V11.25C5.625 10.9516 5.74353 10.6655 5.95451 10.4545C6.16548 10.2435 6.45163 10.125 6.75 10.125H22.5C22.7984 10.125 23.0845 10.2435 23.2955 10.4545C23.5065 10.6655 23.625 10.9516 23.625 11.25V14.625C23.625 15.2217 23.3879 15.794 22.966 16.216C22.544 16.6379 21.9717 16.875 21.375 16.875ZM7.875 12.375V14.625H21.375V12.375H7.875Z" fill="black"/>
<path d="M19.125 23.625H10.125C9.22989 23.625 8.37145 23.2694 7.73851 22.6365C7.10558 22.0036 6.75 21.1451 6.75 20.25V15.75C6.75 15.4516 6.86853 15.1655 7.07951 14.9545C7.29048 14.7435 7.57663 14.625 7.875 14.625H21.375C21.6734 14.625 21.9595 14.7435 22.1705 14.9545C22.3815 15.1655 22.5 15.4516 22.5 15.75V20.25C22.5 21.1451 22.1444 22.0036 21.5115 22.6365C20.8786 23.2694 20.0201 23.625 19.125 23.625ZM9 16.875V20.25C9 20.5484 9.11853 20.8345 9.3295 21.0455C9.54048 21.2565 9.82663 21.375 10.125 21.375H19.125C19.4234 21.375 19.7095 21.2565 19.9205 21.0455C20.1315 20.8345 20.25 20.5484 20.25 20.25V16.875H9Z" fill="black"/>
<path d="M19.125 12.375H10.125C9.82663 12.375 9.54048 12.2565 9.32951 12.0455C9.11853 11.8345 9 11.5484 9 11.25V9C9 8.10489 9.35558 7.24645 9.98851 6.61351C10.6214 5.98058 11.4799 5.625 12.375 5.625H16.875C17.7701 5.625 18.6286 5.98058 19.2615 6.61351C19.8944 7.24645 20.25 8.10489 20.25 9V11.25C20.25 11.5484 20.1315 11.8345 19.9205 12.0455C19.7095 12.2565 19.4234 12.375 19.125 12.375ZM11.25 10.125H18V9C18 8.70163 17.8815 8.41548 17.6705 8.2045C17.4595 7.99353 17.1734 7.875 16.875 7.875H12.375C12.0766 7.875 11.7905 7.99353 11.5795 8.2045C11.3685 8.41548 11.25 8.70163 11.25 9V10.125Z" fill="black"/>
</g>
<defs>
<clipPath id="clip0_8_143">
<rect width="36" height="36" fill="white"/>
</clipPath>
</defs>
</svg>
