<svg width="191" height="59" viewBox="0 0 191 59" fill="none" xmlns="http://www.w3.org/2000/svg">
<g clip-path="url(#clip0_47_6)">
<path d="M155.831 6L153 6L160.804 16.1387L153 27H155.831L165 16.1387L155.831 6Z" stroke="#376FD0" stroke-opacity="0.6" stroke-width="9"/>
<path d="M135.831 6L133 6L140.804 16.1387L133 27H135.831L145 16.1387L135.831 6Z" stroke="#376FD0" stroke-opacity="0.3" stroke-width="9"/>
<path d="M174.831 6L172 6L179.804 16.1387L172 27H174.831L184 16.1387L174.831 6Z" stroke="#376FD0" stroke-width="9"/>
<path d="M3.19922 3.52539H8.80664V31H3.19922V3.52539ZM20.6051 8.41211H10.4625V3.52539H36.3199V8.41211H26.1773V31H20.6051V8.41211ZM44.7152 22.8262C45.7113 23.3887 46.7191 23.8984 47.7387 24.3555C48.7699 24.8008 49.8363 25.1816 50.9379 25.498C52.0395 25.8027 53.1937 26.0371 54.4008 26.2012C55.6195 26.3652 56.9145 26.4473 58.2855 26.4473C59.9379 26.4473 61.3441 26.3418 62.5043 26.1309C63.6645 25.9082 64.6078 25.6094 65.3344 25.2344C66.0727 24.8477 66.6059 24.3906 66.934 23.8633C67.2738 23.3359 67.4437 22.7617 67.4437 22.1406C67.4437 21.1445 67.0277 20.3594 66.1957 19.7852C65.3637 19.1992 64.0805 18.9062 62.3461 18.9062C61.5844 18.9062 60.7816 18.959 59.9379 19.0645C59.0941 19.1582 58.2387 19.2637 57.3715 19.3809C56.516 19.498 55.6664 19.6094 54.8227 19.7148C53.9906 19.8086 53.2055 19.8555 52.4672 19.8555C51.2367 19.8555 50.0531 19.6973 48.9164 19.3809C47.7914 19.0645 46.7895 18.5898 45.9105 17.957C45.0434 17.3242 44.352 16.5332 43.8363 15.584C43.3207 14.6348 43.0629 13.5273 43.0629 12.2617C43.0629 11.5117 43.1625 10.7676 43.3617 10.0293C43.5727 9.29102 43.9008 8.58789 44.3461 7.91992C44.8031 7.24023 45.3891 6.61328 46.1039 6.03906C46.8187 5.45313 47.6801 4.94922 48.6879 4.52734C49.7074 4.10547 50.8793 3.77734 52.2035 3.54297C53.5395 3.29688 55.057 3.17383 56.7562 3.17383C57.9867 3.17383 59.223 3.24414 60.4652 3.38477C61.7074 3.51367 62.9145 3.70117 64.0863 3.94727C65.2699 4.19336 66.4066 4.49219 67.4965 4.84375C68.5863 5.18359 69.6 5.56445 70.5375 5.98633L68.0941 10.4863C67.3207 10.1465 66.4887 9.83594 65.598 9.55469C64.7074 9.26172 63.7758 9.00977 62.8031 8.79883C61.8305 8.58789 60.8227 8.42383 59.7797 8.30664C58.7484 8.17773 57.6937 8.11328 56.6156 8.11328C55.0805 8.11328 53.8148 8.22461 52.8187 8.44727C51.8344 8.66992 51.0492 8.95703 50.4633 9.30859C49.8773 9.64844 49.4672 10.0352 49.2328 10.4688C49.0102 10.8906 48.8988 11.3125 48.8988 11.7344C48.8988 12.5547 49.268 13.2285 50.0062 13.7559C50.7445 14.2715 51.8695 14.5293 53.3812 14.5293C53.9906 14.5293 54.6879 14.4883 55.473 14.4062C56.2699 14.3125 57.102 14.2129 57.9691 14.1074C58.848 14.002 59.7387 13.9082 60.641 13.8262C61.5551 13.7324 62.4398 13.6855 63.2953 13.6855C64.9125 13.6855 66.3422 13.8672 67.5844 14.2305C68.8383 14.5938 69.8871 15.1152 70.7309 15.7949C71.5746 16.4629 72.2133 17.2773 72.6469 18.2383C73.0805 19.1875 73.2973 20.2539 73.2973 21.4375C73.2973 23.0195 72.9281 24.4316 72.1898 25.6738C71.4633 26.9043 70.4203 27.9473 69.0609 28.8027C67.7133 29.6465 66.0844 30.291 64.1742 30.7363C62.2641 31.1699 60.1371 31.3867 57.7934 31.3867C56.2465 31.3867 54.7348 31.2871 53.2582 31.0879C51.7816 30.9004 50.3637 30.6309 49.0043 30.2793C47.6566 29.916 46.3676 29.4883 45.1371 28.9961C43.9184 28.4922 42.7875 27.9414 41.7445 27.3438L44.7152 22.8262ZM75.1992 1.83789H80.4023V19.0645L90.1055 10.2578H98.0684L87.2227 19.9609L98.7539 31H90.9492L83.2324 23.5293L80.4023 26.0605V31H75.1992V1.83789ZM101.324 7.42773C100.808 7.42773 100.339 7.35742 99.9176 7.2168C99.5074 7.06445 99.1559 6.86523 98.8629 6.61914C98.5699 6.36133 98.3414 6.06836 98.1773 5.74023C98.025 5.40039 97.9488 5.04297 97.9488 4.66797C97.9488 4.28125 98.025 3.92383 98.1773 3.5957C98.3414 3.25586 98.5699 2.96289 98.8629 2.7168C99.1559 2.4707 99.5074 2.27734 99.9176 2.13672C100.339 1.98437 100.808 1.9082 101.324 1.9082C101.851 1.9082 102.32 1.98437 102.73 2.13672C103.152 2.27734 103.509 2.4707 103.802 2.7168C104.095 2.96289 104.318 3.25586 104.47 3.5957C104.634 3.92383 104.716 4.28125 104.716 4.66797C104.716 5.04297 104.634 5.40039 104.47 5.74023C104.318 6.06836 104.095 6.36133 103.802 6.61914C103.509 6.86523 103.152 7.06445 102.73 7.2168C102.32 7.35742 101.851 7.42773 101.324 7.42773ZM98.7223 10.2578H103.925V31H98.7223V10.2578ZM107.146 1.83789H112.349V31H107.146V1.83789ZM115.569 1.83789H120.772V31H115.569V1.83789Z" fill="black"/>
<path d="M2.60156 35.6836H9.31641C11.2773 35.6836 12.9805 35.8945 14.4258 36.3164C15.8711 36.7383 17.0664 37.3438 18.0117 38.1328C18.9648 38.9141 19.6719 39.8672 20.1328 40.9922C20.6016 42.1094 20.8359 43.3672 20.8359 44.7656C20.8359 46.0938 20.6055 47.3242 20.1445 48.457C19.6836 49.582 18.9805 50.5586 18.0352 51.3867C17.0898 52.207 15.8945 52.8516 14.4492 53.3203C13.0039 53.7812 11.3008 54.0117 9.33984 54.0117L2.60156 54V35.6836ZM10.2305 50.7891C11.3398 50.7891 12.3125 50.6484 13.1484 50.3672C13.9844 50.0781 14.6797 49.6719 15.2344 49.1484C15.7969 48.625 16.2188 47.9922 16.5 47.25C16.7812 46.5078 16.9219 45.6797 16.9219 44.7656C16.9219 43.8672 16.7812 43.0586 16.5 42.3398C16.2188 41.6133 15.7969 41 15.2344 40.5C14.6797 39.9922 13.9844 39.6016 13.1484 39.3281C12.3125 39.0547 11.3398 38.918 10.2305 38.918H6.31641V50.7891H10.2305ZM21.0727 47.0391C21.0727 46.1016 21.2641 45.207 21.6469 44.3555C22.0297 43.4961 22.5805 42.7383 23.2992 42.082C24.018 41.4258 24.8969 40.9023 25.9359 40.5117C26.9828 40.1211 28.1703 39.9258 29.4984 39.9258C30.8188 39.9258 32.0063 40.125 33.0609 40.5234C34.1234 40.9141 35.0219 41.4531 35.7563 42.1406C36.4984 42.8281 37.0648 43.6367 37.4555 44.5664C37.8539 45.4961 38.0531 46.4922 38.0531 47.5547C38.0531 47.6875 38.0492 47.832 38.0414 47.9883C38.0414 48.1367 38.0336 48.2734 38.018 48.3984H24.9398C25.0883 48.8125 25.3266 49.1914 25.6547 49.5352C25.9906 49.8789 26.4086 50.1758 26.9086 50.4258C27.4086 50.6758 27.9867 50.8711 28.643 51.0117C29.2992 51.1445 30.0258 51.2109 30.8227 51.2109C31.6195 51.2109 32.4125 51.1289 33.2016 50.9648C33.9906 50.793 34.7445 50.5781 35.4633 50.3203L36.6352 52.9688C36.182 53.1797 35.7211 53.3672 35.2523 53.5312C34.7914 53.6875 34.307 53.8203 33.7992 53.9297C33.2992 54.0312 32.7719 54.1094 32.2172 54.1641C31.6703 54.2188 31.0922 54.2461 30.4828 54.2461C28.9281 54.2461 27.5648 54.0586 26.393 53.6836C25.2211 53.3086 24.2406 52.7969 23.4516 52.1484C22.6625 51.5 22.0688 50.7383 21.6703 49.8633C21.2719 48.9883 21.0727 48.0469 21.0727 47.0391ZM34.3734 45.6914C34.2484 45.3086 34.0531 44.9531 33.7875 44.625C33.5297 44.2891 33.2055 44 32.8148 43.7578C32.4242 43.5078 31.9711 43.3125 31.4555 43.1719C30.9398 43.0312 30.3734 42.9609 29.7563 42.9609C29.1 42.9609 28.5023 43.0352 27.9633 43.1836C27.4242 43.332 26.9516 43.5312 26.5453 43.7812C26.1391 44.0312 25.7992 44.3203 25.5258 44.6484C25.2602 44.9766 25.0648 45.3242 24.9398 45.6914H34.3734ZM37.4813 40.1602H41.5008L45.0984 48.4805L46.0359 50.8125L46.9734 48.4805L50.5711 40.1602H54.5906L48.0398 54H44.032L37.4813 40.1602ZM53.9602 47.0391C53.9602 46.1016 54.1516 45.207 54.5344 44.3555C54.9172 43.4961 55.468 42.7383 56.1867 42.082C56.9055 41.4258 57.7844 40.9023 58.8234 40.5117C59.8703 40.1211 61.0578 39.9258 62.3859 39.9258C63.7062 39.9258 64.8937 40.125 65.9484 40.5234C67.0109 40.9141 67.9094 41.4531 68.6437 42.1406C69.3859 42.8281 69.9523 43.6367 70.343 44.5664C70.7414 45.4961 70.9406 46.4922 70.9406 47.5547C70.9406 47.6875 70.9367 47.832 70.9289 47.9883C70.9289 48.1367 70.9211 48.2734 70.9055 48.3984H57.8273C57.9758 48.8125 58.2141 49.1914 58.5422 49.5352C58.8781 49.8789 59.2961 50.1758 59.7961 50.4258C60.2961 50.6758 60.8742 50.8711 61.5305 51.0117C62.1867 51.1445 62.9133 51.2109 63.7102 51.2109C64.507 51.2109 65.3 51.1289 66.0891 50.9648C66.8781 50.793 67.632 50.5781 68.3508 50.3203L69.5227 52.9688C69.0695 53.1797 68.6086 53.3672 68.1398 53.5312C67.6789 53.6875 67.1945 53.8203 66.6867 53.9297C66.1867 54.0312 65.6594 54.1094 65.1047 54.1641C64.5578 54.2188 63.9797 54.2461 63.3703 54.2461C61.8156 54.2461 60.4523 54.0586 59.2805 53.6836C58.1086 53.3086 57.1281 52.7969 56.3391 52.1484C55.55 51.5 54.9562 50.7383 54.5578 49.8633C54.1594 48.9883 53.9602 48.0469 53.9602 47.0391ZM67.2609 45.6914C67.1359 45.3086 66.9406 44.9531 66.675 44.625C66.4172 44.2891 66.093 44 65.7023 43.7578C65.3117 43.5078 64.8586 43.3125 64.343 43.1719C63.8273 43.0312 63.2609 42.9609 62.6437 42.9609C61.9875 42.9609 61.3898 43.0352 60.8508 43.1836C60.3117 43.332 59.8391 43.5312 59.4328 43.7812C59.0266 44.0312 58.6867 44.3203 58.4133 44.6484C58.1477 44.9766 57.9523 45.3242 57.8273 45.6914H67.2609ZM72.3727 34.5586H75.8414V54H72.3727V34.5586ZM77.0625 47.0859C77.0625 46.0938 77.2617 45.1641 77.6602 44.2969C78.0664 43.4297 78.6406 42.6719 79.3828 42.0234C80.1328 41.375 81.0352 40.8633 82.0898 40.4883C83.1523 40.1133 84.3438 39.9258 85.6641 39.9258C86.9844 39.9258 88.1719 40.1133 89.2266 40.4883C90.2891 40.8633 91.1914 41.375 91.9336 42.0234C92.6836 42.6719 93.2578 43.4297 93.6562 44.2969C94.0625 45.1641 94.2656 46.0938 94.2656 47.0859C94.2656 48.0781 94.0625 49.0078 93.6562 49.875C93.2578 50.7422 92.6836 51.5 91.9336 52.1484C91.1914 52.7969 90.2891 53.3086 89.2266 53.6836C88.1719 54.0586 86.9844 54.2461 85.6641 54.2461C84.3438 54.2461 83.1523 54.0586 82.0898 53.6836C81.0352 53.3086 80.1328 52.7969 79.3828 52.1484C78.6406 51.5 78.0664 50.7422 77.6602 49.875C77.2617 49.0078 77.0625 48.0781 77.0625 47.0859ZM80.707 47.0859C80.707 47.6406 80.8164 48.168 81.0352 48.668C81.2617 49.1602 81.5859 49.5977 82.0078 49.9805C82.4375 50.3555 82.957 50.6562 83.5664 50.8828C84.1836 51.1016 84.8828 51.2109 85.6641 51.2109C86.4453 51.2109 87.1406 51.1016 87.75 50.8828C88.3672 50.6562 88.8867 50.3555 89.3086 49.9805C89.7383 49.5977 90.0625 49.1602 90.2812 48.668C90.5078 48.168 90.6211 47.6406 90.6211 47.0859C90.6211 46.5312 90.5078 46.0039 90.2812 45.5039C90.0625 45.0039 89.7383 44.5664 89.3086 44.1914C88.8867 43.8086 88.3672 43.5078 87.75 43.2891C87.1406 43.0625 86.4453 42.9492 85.6641 42.9492C84.8828 42.9492 84.1836 43.0625 83.5664 43.2891C82.957 43.5078 82.4375 43.8086 82.0078 44.1914C81.5859 44.5664 81.2617 45.0039 81.0352 45.5039C80.8164 46.0039 80.707 46.5312 80.707 47.0859ZM98.7445 59.6484H95.2758V40.1719H98.7445V41.4727C99.0492 41.2617 99.4086 41.0625 99.8227 40.875C100.237 40.6875 100.682 40.5234 101.159 40.3828C101.635 40.2422 102.127 40.1328 102.635 40.0547C103.143 39.9688 103.651 39.9258 104.159 39.9258C105.33 39.9258 106.405 40.0977 107.381 40.4414C108.366 40.7852 109.209 41.2695 109.912 41.8945C110.616 42.5195 111.162 43.2695 111.553 44.1445C111.952 45.0117 112.151 45.9727 112.151 47.0273C112.151 48.1289 111.944 49.125 111.53 50.0156C111.116 50.8984 110.541 51.6562 109.807 52.2891C109.08 52.9141 108.213 53.3984 107.205 53.7422C106.205 54.0781 105.12 54.2461 103.948 54.2461C103.448 54.2461 102.952 54.2148 102.459 54.1523C101.975 54.0898 101.506 54.0039 101.053 53.8945C100.608 53.7852 100.186 53.6562 99.7875 53.5078C99.3969 53.3516 99.0492 53.1836 98.7445 53.0039V59.6484ZM98.7445 49.6523C99.0961 49.9336 99.4672 50.1719 99.8578 50.3672C100.248 50.5625 100.647 50.7227 101.053 50.8477C101.459 50.9727 101.87 51.0664 102.284 51.1289C102.698 51.1836 103.1 51.2109 103.491 51.2109C104.287 51.2109 104.995 51.1055 105.612 50.8945C106.237 50.6758 106.76 50.3789 107.182 50.0039C107.612 49.6289 107.94 49.1875 108.166 48.6797C108.393 48.1719 108.506 47.6211 108.506 47.0273C108.506 46.4727 108.393 45.9492 108.166 45.457C107.948 44.9648 107.627 44.5352 107.205 44.168C106.791 43.793 106.287 43.5 105.694 43.2891C105.108 43.0703 104.448 42.9609 103.713 42.9609C103.245 42.9609 102.776 43.0078 102.307 43.1016C101.838 43.1875 101.385 43.3125 100.948 43.4766C100.518 43.6406 100.112 43.8398 99.7289 44.0742C99.3539 44.3086 99.0258 44.5703 98.7445 44.8594V49.6523ZM113.126 40.1719H116.595V41.3438C117.462 40.8125 118.305 40.4453 119.126 40.2422C119.954 40.0312 120.762 39.9258 121.552 39.9258C122.653 39.9258 123.665 40.1016 124.587 40.4531C125.509 40.8047 126.298 41.3359 126.954 42.0469C127.462 41.6562 127.962 41.3281 128.454 41.0625C128.946 40.7891 129.438 40.5703 129.93 40.4062C130.423 40.2344 130.923 40.1133 131.43 40.043C131.938 39.9648 132.462 39.9258 133.001 39.9258C134.134 39.9258 135.161 40.082 136.083 40.3945C137.005 40.6992 137.79 41.1562 138.438 41.7656C139.095 42.375 139.598 43.1367 139.95 44.0508C140.309 44.957 140.489 46.0078 140.489 47.2031V54H137.032V47.7656C137.032 47.0078 136.923 46.332 136.704 45.7383C136.493 45.1367 136.192 44.6328 135.802 44.2266C135.419 43.8125 134.958 43.5 134.419 43.2891C133.887 43.0703 133.302 42.9609 132.661 42.9609C132.309 42.9609 131.95 42.9961 131.583 43.0664C131.216 43.1289 130.856 43.2305 130.505 43.3711C130.161 43.5117 129.837 43.6914 129.532 43.9102C129.227 44.1211 128.962 44.3711 128.735 44.6602V54H125.278V47.7656C125.278 47.0078 125.169 46.332 124.95 45.7383C124.739 45.1367 124.438 44.6328 124.048 44.2266C123.665 43.8125 123.2 43.5 122.653 43.2891C122.114 43.0703 121.52 42.9609 120.872 42.9609C120.473 42.9609 120.071 43.0039 119.665 43.0898C119.266 43.168 118.88 43.2812 118.505 43.4297C118.137 43.5781 117.79 43.7578 117.462 43.9688C117.141 44.1797 116.852 44.418 116.595 44.6836V54H113.126V40.1719ZM141.804 47.0391C141.804 46.1016 141.995 45.207 142.378 44.3555C142.761 43.4961 143.312 42.7383 144.03 42.082C144.749 41.4258 145.628 40.9023 146.667 40.5117C147.714 40.1211 148.902 39.9258 150.23 39.9258C151.55 39.9258 152.738 40.125 153.792 40.5234C154.855 40.9141 155.753 41.4531 156.488 42.1406C157.23 42.8281 157.796 43.6367 158.187 44.5664C158.585 45.4961 158.784 46.4922 158.784 47.5547C158.784 47.6875 158.78 47.832 158.773 47.9883C158.773 48.1367 158.765 48.2734 158.749 48.3984H145.671C145.82 48.8125 146.058 49.1914 146.386 49.5352C146.722 49.8789 147.14 50.1758 147.64 50.4258C148.14 50.6758 148.718 50.8711 149.374 51.0117C150.03 51.1445 150.757 51.2109 151.554 51.2109C152.351 51.2109 153.144 51.1289 153.933 50.9648C154.722 50.793 155.476 50.5781 156.195 50.3203L157.366 52.9688C156.913 53.1797 156.452 53.3672 155.984 53.5312C155.523 53.6875 155.038 53.8203 154.53 53.9297C154.03 54.0312 153.503 54.1094 152.948 54.1641C152.402 54.2188 151.823 54.2461 151.214 54.2461C149.659 54.2461 148.296 54.0586 147.124 53.6836C145.952 53.3086 144.972 52.7969 144.183 52.1484C143.394 51.5 142.8 50.7383 142.402 49.8633C142.003 48.9883 141.804 48.0469 141.804 47.0391ZM155.105 45.6914C154.98 45.3086 154.784 44.9531 154.519 44.625C154.261 44.2891 153.937 44 153.546 43.7578C153.155 43.5078 152.702 43.3125 152.187 43.1719C151.671 43.0312 151.105 42.9609 150.488 42.9609C149.831 42.9609 149.234 43.0352 148.695 43.1836C148.155 43.332 147.683 43.5312 147.277 43.7812C146.87 44.0312 146.53 44.3203 146.257 44.6484C145.991 44.9766 145.796 45.3242 145.671 45.6914H155.105ZM160.123 40.1719H163.591V41.3438C164.513 40.8203 165.392 40.4531 166.228 40.2422C167.072 40.0312 167.896 39.9258 168.701 39.9258C169.755 39.9258 170.732 40.082 171.63 40.3945C172.529 40.6992 173.306 41.1562 173.962 41.7656C174.619 42.375 175.13 43.1367 175.498 44.0508C175.873 44.957 176.06 46.0078 176.06 47.2031V54H172.603V47.7656C172.603 47.0078 172.494 46.332 172.275 45.7383C172.064 45.1367 171.755 44.6328 171.349 44.2266C170.951 43.8125 170.462 43.5 169.884 43.2891C169.314 43.0703 168.673 42.9609 167.962 42.9609C167.587 42.9609 167.201 43 166.802 43.0781C166.412 43.1562 166.025 43.2695 165.642 43.418C165.267 43.5586 164.904 43.7383 164.552 43.957C164.201 44.168 163.88 44.4102 163.591 44.6836V54H160.123V40.1719ZM180.012 42.7734H176.672V40.1719H180.012V35.8711H183.48V40.1719H186.82V42.7734H183.48V54H180.012V42.7734Z" fill="#376FD0"/>
</g>
<defs>
<clipPath id="clip0_47_6">
<rect width="191" height="59" fill="white"/>
</clipPath>
</defs>
</svg>
